<svg xmlns="http://www.w3.org/2000/svg" xmlns:xlink="http://www.w3.org/1999/xlink" width="801" height="216" viewBox="0 0 801 216">
  <defs>
    <clipPath id="clip-path">
      <rect id="Rectangle_607" data-name="Rectangle 607" width="801" height="216" transform="translate(0 685.235)" fill="#d9d9d9"/>
    </clipPath>
  </defs>
  <g id="Rectangle_607-2" data-name="Rectangle 607" transform="translate(0 -685.235)" clip-path="url(#clip-path)">
    <g id="Group_1000001426" data-name="Group 1000001426" transform="translate(-234.586 671.925)">
      <g id="Group" transform="translate(2.594 26.753)">
        <g id="Group-2" data-name="Group" transform="translate(0)">
          <path id="Vector" d="M.6,107.117c4.062-5.945,8.123-11.82,12.252-17.695,16.38-23.15,34.158-45.671,56.331-62.876C91.957,8.781,119.39-1.5,147.954.178a112.62,112.62,0,0,1,42.947,11.4c13.45,6.714,25.236,16.436,36.422,26.577,11.253,10.141,22.04,20.912,34.291,29.725a119.754,119.754,0,0,0,40.217,18.744c29.43,7.623,60.193,5.665,90.156,5.106,28.565-.56,57.063.28,84.829,8.393,50.138,14.618,93.352,46.79,135.234,77.983,42.548,31.753,85.894,64.695,136.366,80.921,2.6.769,3.462,4.966.8,6.365-2.264,1.189-4.461,2.308-6.725,3.5-3.8,2.028-7.191-3.987-3.329-6.015,2.264-1.189,4.461-2.308,6.725-3.5.266,2.1.533,4.266.8,6.365-6.059-1.888-11.985-4.057-17.845-6.435-48.407-19.723-90.089-53.015-132.237-84.138-41.416-30.564-85.1-60.918-135.5-71.829-29.031-6.295-58.728-4.756-88.158-4.2-28.831.56-58.661.42-86.161-9.932-13.517-5.106-25.7-12.659-37.021-21.891C238.31,57.949,227.79,47.388,216.6,37.666c-11.719-10.071-24.3-18.954-38.686-24.2a106.142,106.142,0,0,0-43.746-6.155C75.91,11.509,37.623,64.873,6.4,110.614c-2.53,3.637-8.257.14-5.793-3.5Z" transform="translate(0)" fill="#fff"/>
        </g>
      </g>
      <g id="Group-3" data-name="Group" transform="translate(0)">
        <g id="Group-4" data-name="Group">
          <path id="Vector-2" data-name="Vector" d="M.133,83.3A231.813,231.813,0,0,1,19.975,61.48C78.1,5.458,161.468-14.265,236.708,10.564c39.019,12.869,71.579,36.858,100.277,67,29.9,31.4,57.063,66.094,94.351,88.335,81.233,48.4,178.314,39.376,267.8,34.271,89.889-5.176,179.246.56,267.138,20.842a914.3,914.3,0,0,1,247.362,96.8c.466.28.067,1.049-.4.769q-14.282-8.183-28.831-15.806a912.048,912.048,0,0,0-250.226-87.705,898.274,898.274,0,0,0-132.437-15.527c-46.276-1.888-92.286.909-138.5,3.567-83.83,4.756-175.784,5.385-247.9-46.72C382,132.26,356.827,98.269,327.663,69.174c-30.7-30.634-67.117-52.8-108.6-62.736C138.829-12.726,53.6,17.907.665,83.931c-.333.42-.932-.21-.533-.629Z" transform="translate(0)" fill="#fff" stroke="#fff" stroke-width="1"/>
        </g>
      </g>
    </g>
  </g>
</svg>
